<svg xmlns="http://www.w3.org/2000/svg" xmlns:xlink="http://www.w3.org/1999/xlink" viewBox="0 0 676.7272727272727 268" width="676.7272727272727" height="268"><path d="M 225.000,119.364 C 223.747,109.789 224.636,109.909 224.273,100.455" stroke-width="5.195" stroke="black" fill="none" stroke-linecap="round"></path><path d="M 224.273,100.455 C 225.013,96.840 224.474,96.880 226.455,93.545" stroke-width="4.481" stroke="black" fill="none" stroke-linecap="round"></path><path d="M 226.455,93.545 C 227.443,90.739 227.559,91.022 229.364,88.818" stroke-width="4.263" stroke="black" fill="none" stroke-linecap="round"></path><path d="M 229.364,88.818 C 231.996,85.335 231.807,86.375 235.182,84.818" stroke-width="4.532" stroke="black" fill="none" stroke-linecap="round"></path><path d="M 235.182,84.818 C 239.232,85.165 238.724,84.244 242.818,86.636" stroke-width="4.558" stroke="black" fill="none" stroke-linecap="round"></path><path d="M 242.818,86.636 C 246.099,88.623 246.323,88.074 249.364,90.636" stroke-width="4.001" stroke="black" fill="none" stroke-linecap="round"></path><path d="M 249.364,90.636 C 256.648,96.222 257.008,95.350 264.636,100.091" stroke-width="3.714" stroke="black" fill="none" stroke-linecap="round"></path><path d="M 264.636,100.091 C 268.793,102.665 268.285,101.858 272.636,101.909" stroke-width="3.770" stroke="black" fill="none" stroke-linecap="round"></path><path d="M 272.636,101.909 C 280.504,99.860 279.884,100.483 286.818,95.727" stroke-width="3.785" stroke="black" fill="none" stroke-linecap="round"></path><path d="M 286.818,95.727 C 290.081,92.519 290.504,93.314 292.636,88.818" stroke-width="3.757" stroke="black" fill="none" stroke-linecap="round"></path><path d="M 292.636,88.818 C 295.509,84.846 295.354,84.882 297.364,80.455" stroke-width="3.641" stroke="black" fill="none" stroke-linecap="round"></path><path d="M 297.364,80.455 C 299.140,76.508 298.964,76.664 299.546,72.455" stroke-width="3.738" stroke="black" fill="none" stroke-linecap="round"></path><path d="M 299.546,72.455 C 299.830,68.946 299.867,69.235 298.818,65.909" stroke-width="3.856" stroke="black" fill="none" stroke-linecap="round"></path><path d="M 298.818,65.909 C 297.857,63.182 298.012,63.491 295.909,61.545" stroke-width="4.193" stroke="black" fill="none" stroke-linecap="round"></path><path d="M 295.909,61.545 C 292.956,58.141 293.311,59.363 289.727,58.273" stroke-width="4.480" stroke="black" fill="none" stroke-linecap="round"></path><path d="M 289.727,58.273 C 283.223,59.174 284.047,58.505 278.091,62.273" stroke-width="4.229" stroke="black" fill="none" stroke-linecap="round"></path><path d="M 278.091,62.273 C 273.656,65.614 273.587,64.992 270.455,69.909" stroke-width="3.644" stroke="black" fill="none" stroke-linecap="round"></path><path d="M 270.455,69.909 C 266.630,75.992 266.202,75.614 263.182,82.273" stroke-width="3.207" stroke="black" fill="none" stroke-linecap="round"></path><path d="M 263.182,82.273 C 261.452,85.250 261.539,85.264 260.273,88.455" stroke-width="3.731" stroke="black" fill="none" stroke-linecap="round"></path><path d="M 260.273,88.455 C 251.770,111.440 251.816,111.432 243.909,134.636" stroke-width="2.366" stroke="black" fill="none" stroke-linecap="round"></path><path d="M 243.909,134.636 C 240.869,144.235 240.679,144.167 238.091,153.909" stroke-width="2.452" stroke="black" fill="none" stroke-linecap="round"></path><path d="M 238.091,153.909 C 235.353,162.553 235.596,162.599 233.364,171.364" stroke-width="2.637" stroke="black" fill="none" stroke-linecap="round"></path><path d="M 233.364,171.364 C 231.523,179.499 231.535,179.462 230.455,187.727" stroke-width="2.779" stroke="black" fill="none" stroke-linecap="round"></path><path d="M 230.455,187.727 C 229.618,193.564 229.705,193.499 229.727,199.364" stroke-width="3.239" stroke="black" fill="none" stroke-linecap="round"></path><path d="M 229.727,199.364 C 229.237,207.226 229.800,203.201 230.818,207.000" stroke-width="3.656" stroke="black" fill="none" stroke-linecap="round"></path><path d="M 230.818,207.000 C 235.981,203.160 233.055,206.680 237.364,198.273" stroke-width="4.427" stroke="black" fill="none" stroke-linecap="round"></path><path d="M 237.364,198.273 C 237.528,192.833 238.708,193.523 236.273,187.727" stroke-width="3.641" stroke="black" fill="none" stroke-linecap="round"></path><path d="M 236.273,187.727 C 234.601,181.661 234.801,181.742 231.909,176.091" stroke-width="3.358" stroke="black" fill="none" stroke-linecap="round"></path><path d="M 231.909,176.091 C 229.115,170.791 229.329,170.752 225.727,165.909" stroke-width="3.473" stroke="black" fill="none" stroke-linecap="round"></path><path d="M 225.727,165.909 C 223.003,161.730 222.933,161.882 219.545,158.273" stroke-width="3.482" stroke="black" fill="none" stroke-linecap="round"></path><path d="M 219.545,158.273 C 215.615,153.638 215.548,154.275 210.818,151.000" stroke-width="3.945" stroke="black" fill="none" stroke-linecap="round"></path><path d="M 210.818,151.000 C 207.131,148.607 208.342,149.638 205.000,150.273" stroke-width="4.493" stroke="black" fill="none" stroke-linecap="round"></path><path d="M 205.000,150.273 C 196.305,157.606 197.131,156.425 190.818,166.636" stroke-width="3.595" stroke="black" fill="none" stroke-linecap="round"></path><path d="M 190.818,166.636 C 188.704,172.744 187.578,171.970 187.545,179.000" stroke-width="3.904" stroke="black" fill="none" stroke-linecap="round"></path><path d="M 187.545,179.000 C 186.117,182.995 186.886,182.562 187.182,186.273" stroke-width="3.928" stroke="black" fill="none" stroke-linecap="round"></path><path d="M 187.182,186.273 C 188.643,192.508 188.480,190.268 192.273,193.545" stroke-width="4.286" stroke="black" fill="none" stroke-linecap="round"></path><path d="M 192.273,193.545 C 199.772,194.575 197.552,195.054 205.000,191.364" stroke-width="3.826" stroke="black" fill="none" stroke-linecap="round"></path><path d="M 205.000,191.364 C 212.065,185.116 212.499,186.757 217.727,177.909" stroke-width="3.721" stroke="black" fill="none" stroke-linecap="round"></path><path d="M 217.727,177.909 C 220.025,174.635 220.065,174.934 221.000,171.000" stroke-width="3.831" stroke="black" fill="none" stroke-linecap="round"></path><path d="M 221.000,171.000 C 221.935,166.956 222.025,167.180 221.727,163.000" stroke-width="3.872" stroke="black" fill="none" stroke-linecap="round"></path><path d="M 221.727,163.000 C 221.875,159.495 221.572,160.047 220.273,157.182" stroke-width="4.267" stroke="black" fill="none" stroke-linecap="round"></path><path d="M 220.273,157.182 C 217.740,153.640 218.602,154.768 215.182,153.545" stroke-width="4.621" stroke="black" fill="none" stroke-linecap="round"></path><path d="M 215.182,153.545 C 212.409,154.779 212.831,153.458 210.455,156.818" stroke-width="4.738" stroke="black" fill="none" stroke-linecap="round"></path><path d="M 210.455,156.818 C 208.357,159.401 208.227,159.143 206.818,162.273" stroke-width="4.189" stroke="black" fill="none" stroke-linecap="round"></path><path d="M 206.818,162.273 C 205.317,164.543 205.629,164.492 205.000,167.000" stroke-width="4.327" stroke="black" fill="none" stroke-linecap="round"></path><path d="M 205.000,167.000 C 203.909,172.818 204.590,170.180 205.364,173.545" stroke-width="4.299" stroke="black" fill="none" stroke-linecap="round"></path><path d="M 205.364,173.545 C 208.554,172.174 206.818,174.273 210.818,169.909" stroke-width="4.903" stroke="black" fill="none" stroke-linecap="round"></path><path d="M 210.818,169.909 C 211.786,165.736 212.736,167.992 213.727,165.182" stroke-width="5.077" stroke="black" fill="none" stroke-linecap="round"></path><path d="M 213.727,165.182 C 216.231,167.913 215.605,164.645 218.455,167.727" stroke-width="5.257" stroke="black" fill="none" stroke-linecap="round"></path><path d="M 218.455,167.727 C 220.156,165.440 220.595,167.549 222.455,164.455" stroke-width="5.248" stroke="black" fill="none" stroke-linecap="round"></path><path d="M 222.455,164.455 C 225.592,164.102 225.247,163.258 228.636,163.364" stroke-width="5.238" stroke="black" fill="none" stroke-linecap="round"></path><path d="M 228.636,163.364 C 231.531,162.405 231.592,162.647 234.455,161.545" stroke-width="5.127" stroke="black" fill="none" stroke-linecap="round"></path><path d="M 234.455,161.545 C 237.706,160.551 237.713,160.587 241.000,159.727" stroke-width="5.174" stroke="black" fill="none" stroke-linecap="round"></path><path d="M 241.000,159.727 C 244.585,159.660 244.251,158.914 247.545,158.273" stroke-width="4.848" stroke="black" fill="none" stroke-linecap="round"></path><path d="M 247.545,158.273 C 250.709,156.751 250.404,156.933 252.636,154.273" stroke-width="4.761" stroke="black" fill="none" stroke-linecap="round"></path><path d="M 252.636,154.273 C 254.494,147.843 254.527,151.842 255.182,148.455" stroke-width="4.935" stroke="black" fill="none" stroke-linecap="round"></path><path d="M 255.182,148.455 C 255.039,152.926 256.130,149.298 255.909,157.182" stroke-width="5.165" stroke="black" fill="none" stroke-linecap="round"></path><path d="M 255.909,157.182 C 258.257,160.791 256.675,160.926 258.455,164.455" stroke-width="4.745" stroke="black" fill="none" stroke-linecap="round"></path><path d="M 258.455,164.455 C 256.562,171.230 258.620,167.518 256.636,170.636" stroke-width="4.969" stroke="black" fill="none" stroke-linecap="round"></path><path d="M 256.636,170.636 C 257.320,165.956 256.744,169.775 258.818,161.545" stroke-width="4.521" stroke="black" fill="none" stroke-linecap="round"></path><path d="M 258.818,161.545 C 260.675,156.291 260.593,156.320 263.182,151.364" stroke-width="3.740" stroke="black" fill="none" stroke-linecap="round"></path><path d="M 263.182,151.364 C 266.268,146.088 265.948,145.927 269.364,140.818" stroke-width="3.336" stroke="black" fill="none" stroke-linecap="round"></path><path d="M 269.364,140.818 C 273.265,134.775 272.996,134.634 276.636,128.455" stroke-width="3.425" stroke="black" fill="none" stroke-linecap="round"></path><path d="M 276.636,128.455 C 279.193,123.856 279.084,123.866 281.000,119.000" stroke-width="3.469" stroke="black" fill="none" stroke-linecap="round"></path><path d="M 281.000,119.000 C 283.313,113.582 282.102,116.038 282.455,112.818" stroke-width="3.885" stroke="black" fill="none" stroke-linecap="round"></path><path d="M 282.455,112.818 C 278.420,113.610 281.677,112.127 277.727,116.091" stroke-width="4.709" stroke="black" fill="none" stroke-linecap="round"></path><path d="M 277.727,116.091 C 277.912,122.273 276.238,121.428 278.091,128.455" stroke-width="4.431" stroke="black" fill="none" stroke-linecap="round"></path><path d="M 278.091,128.455 C 278.455,134.819 278.275,134.818 278.455,141.182" stroke-width="3.504" stroke="black" fill="none" stroke-linecap="round"></path><path d="M 278.455,141.182 C 277.137,148.850 278.455,145.547 278.091,149.909" stroke-width="3.698" stroke="black" fill="none" stroke-linecap="round"></path><path d="M 278.091,149.909 C 279.383,145.568 278.774,150.668 281.727,144.818" stroke-width="4.756" stroke="black" fill="none" stroke-linecap="round"></path><path d="M 281.727,144.818 C 284.473,147.087 283.929,144.114 287.182,147.000" stroke-width="5.096" stroke="black" fill="none" stroke-linecap="round"></path><path d="M 287.182,147.000 C 290.365,146.148 290.110,146.906 293.000,144.455" stroke-width="5.208" stroke="black" fill="none" stroke-linecap="round"></path><path d="M 293.000,144.455 C 294.868,141.894 295.456,142.876 297.364,140.455" stroke-width="5.359" stroke="black" fill="none" stroke-linecap="round"></path><path d="M 297.364,140.455 C 299.859,139.371 299.596,139.167 302.455,139.000" stroke-width="5.405" stroke="black" fill="none" stroke-linecap="round"></path><path d="M 302.455,139.000 C 305.024,139.273 304.950,138.644 307.546,139.000" stroke-width="5.377" stroke="black" fill="none" stroke-linecap="round"></path><path d="M 307.546,139.000 C 311.748,138.378 311.751,138.545 315.909,137.545" stroke-width="5.265" stroke="black" fill="none" stroke-linecap="round"></path><path d="M 315.909,137.545 C 320.884,136.685 320.839,136.559 325.727,135.364" stroke-width="4.559" stroke="black" fill="none" stroke-linecap="round"></path><path d="M 325.727,135.364 C 329.069,134.785 328.884,134.503 331.909,133.182" stroke-width="4.197" stroke="black" fill="none" stroke-linecap="round"></path><path d="M 331.909,133.182 C 340.927,128.860 340.342,128.421 348.273,122.636" stroke-width="3.320" stroke="black" fill="none" stroke-linecap="round"></path><path d="M 348.273,122.636 C 353.615,117.131 354.018,117.769 358.091,111.000" stroke-width="3.124" stroke="black" fill="none" stroke-linecap="round"></path><path d="M 358.091,111.000 C 362.352,105.710 361.978,105.676 365.000,99.727" stroke-width="3.152" stroke="black" fill="none" stroke-linecap="round"></path><path d="M 365.000,99.727 C 367.033,94.328 367.261,94.619 367.909,88.818" stroke-width="3.490" stroke="black" fill="none" stroke-linecap="round"></path><path d="M 367.909,88.818 C 368.686,85.881 368.305,86.328 367.545,83.727" stroke-width="3.998" stroke="black" fill="none" stroke-linecap="round"></path><path d="M 367.545,83.727 C 365.415,78.090 365.413,79.699 361.364,76.455" stroke-width="3.713" stroke="black" fill="none" stroke-linecap="round"></path><path d="M 361.364,76.455 C 354.638,74.891 355.960,74.272 348.636,76.091" stroke-width="4.049" stroke="black" fill="none" stroke-linecap="round"></path><path d="M 348.636,76.091 C 344.461,77.633 344.638,76.891 341.364,80.455" stroke-width="3.781" stroke="black" fill="none" stroke-linecap="round"></path><path d="M 341.364,80.455 C 336.473,85.474 336.279,85.087 332.273,91.000" stroke-width="3.271" stroke="black" fill="none" stroke-linecap="round"></path><path d="M 332.273,91.000 C 329.282,94.517 329.564,94.565 327.546,98.636" stroke-width="3.496" stroke="black" fill="none" stroke-linecap="round"></path><path d="M 327.546,98.636 C 322.618,109.688 322.919,109.608 319.546,121.182" stroke-width="2.523" stroke="black" fill="none" stroke-linecap="round"></path><path d="M 319.546,121.182 C 318.152,128.250 317.709,128.051 317.727,135.364" stroke-width="2.821" stroke="black" fill="none" stroke-linecap="round"></path><path d="M 317.727,135.364 C 317.213,140.605 317.425,140.432 318.091,145.545" stroke-width="3.275" stroke="black" fill="none" stroke-linecap="round"></path><path d="M 318.091,145.545 C 318.827,149.013 318.667,148.787 320.636,151.727" stroke-width="3.731" stroke="black" fill="none" stroke-linecap="round"></path><path d="M 320.636,151.727 C 322.294,154.282 322.100,153.922 324.636,155.364" stroke-width="4.050" stroke="black" fill="none" stroke-linecap="round"></path><path d="M 324.636,155.364 C 327.457,156.530 327.021,156.464 330.091,156.091" stroke-width="4.188" stroke="black" fill="none" stroke-linecap="round"></path><path d="M 330.091,156.091 C 334.135,155.068 334.002,155.439 337.727,153.182" stroke-width="3.851" stroke="black" fill="none" stroke-linecap="round"></path><path d="M 337.727,153.182 C 341.570,151.242 341.408,151.250 344.636,148.455" stroke-width="3.793" stroke="black" fill="none" stroke-linecap="round"></path><path d="M 344.636,148.455 C 347.569,145.609 347.570,145.788 349.727,142.273" stroke-width="3.984" stroke="black" fill="none" stroke-linecap="round"></path><path d="M 349.727,142.273 C 352.081,139.331 351.569,139.427 352.636,136.091" stroke-width="4.004" stroke="black" fill="none" stroke-linecap="round"></path><path d="M 352.636,136.091 C 353.326,132.177 353.172,132.968 351.909,129.545" stroke-width="4.445" stroke="black" fill="none" stroke-linecap="round"></path><path d="M 351.909,129.545 C 349.417,126.280 350.781,127.450 347.545,126.636" stroke-width="4.723" stroke="black" fill="none" stroke-linecap="round"></path><path d="M 347.545,126.636 C 343.672,130.399 345.599,127.007 344.273,131.000" stroke-width="4.869" stroke="black" fill="none" stroke-linecap="round"></path><path d="M 344.273,131.000 C 347.527,130.661 344.944,131.672 350.091,129.182" stroke-width="5.227" stroke="black" fill="none" stroke-linecap="round"></path><path d="M 350.091,129.182 C 351.525,126.720 352.254,127.934 353.727,125.545" stroke-width="5.124" stroke="black" fill="none" stroke-linecap="round"></path><path d="M 353.727,125.545 C 357.322,124.283 356.979,123.811 361.000,123.364" stroke-width="5.068" stroke="black" fill="none" stroke-linecap="round"></path><path d="M 361.000,123.364 C 363.904,122.787 363.867,122.647 366.818,122.273" stroke-width="4.839" stroke="black" fill="none" stroke-linecap="round"></path><path d="M 366.818,122.273 C 370.122,121.876 370.085,121.696 373.364,121.182" stroke-width="4.745" stroke="black" fill="none" stroke-linecap="round"></path><path d="M 373.364,121.182 C 377.974,120.722 377.758,120.240 382.091,119.000" stroke-width="4.533" stroke="black" fill="none" stroke-linecap="round"></path><path d="M 382.091,119.000 C 388.027,116.338 387.974,116.540 393.364,112.818" stroke-width="4.207" stroke="black" fill="none" stroke-linecap="round"></path><path d="M 393.364,112.818 C 396.550,110.534 396.573,110.702 399.182,107.727" stroke-width="3.963" stroke="black" fill="none" stroke-linecap="round"></path><path d="M 399.182,107.727 C 402.127,104.694 402.005,104.716 404.273,101.182" stroke-width="3.884" stroke="black" fill="none" stroke-linecap="round"></path><path d="M 404.273,101.182 C 406.235,98.046 406.127,98.148 407.182,94.636" stroke-width="3.935" stroke="black" fill="none" stroke-linecap="round"></path><path d="M 407.182,94.636 C 408.101,91.353 408.053,91.501 407.909,88.091" stroke-width="4.062" stroke="black" fill="none" stroke-linecap="round"></path><path d="M 407.909,88.091 C 407.349,82.003 407.556,82.080 406.091,76.091" stroke-width="4.073" stroke="black" fill="none" stroke-linecap="round"></path><path d="M 406.091,76.091 C 405.386,69.840 405.531,73.458 404.273,71.000" stroke-width="4.590" stroke="black" fill="none" stroke-linecap="round"></path><path d="M 404.273,71.000 C 399.990,77.809 401.023,74.385 397.364,85.182" stroke-width="4.555" stroke="black" fill="none" stroke-linecap="round"></path><path d="M 397.364,85.182 C 395.822,91.322 395.262,91.082 394.818,97.545" stroke-width="3.466" stroke="black" fill="none" stroke-linecap="round"></path><path d="M 394.818,97.545 C 394.016,102.623 394.004,102.594 393.727,107.727" stroke-width="3.754" stroke="black" fill="none" stroke-linecap="round"></path><path d="M 393.727,107.727 C 393.461,112.288 393.471,112.259 393.727,116.818" stroke-width="3.691" stroke="black" fill="none" stroke-linecap="round"></path><path d="M 393.727,116.818 C 393.970,121.605 394.006,121.561 394.818,126.273" stroke-width="3.683" stroke="black" fill="none" stroke-linecap="round"></path><circle r="1.5" cx="424.2727355957031" cy="109.54546356201172" fill="black"></circle></svg>